<svg width="74" height="73" viewBox="0 0 74 73" fill="none" xmlns="http://www.w3.org/2000/svg">
<ellipse cx="37" cy="36.5" rx="37" ry="36.5" fill="#ED3030"/>
<ellipse cx="37" cy="23.5" rx="14" ry="14.5" fill="#B5E7EA"/>
<path d="M49 23.5C49 30.4036 43.6274 36 37 36C30.3726 36 25 30.4036 25 23.5C25 16.5964 30.3726 11 37 11C43.6274 11 49 16.5964 49 23.5Z" fill="#ED3030"/>
<path d="M42.5 36V34.1048C42.5 31.1403 41.4027 28.2808 39.4195 26.0773L38 24.5L37 23.5714M31 12V14.0754C31 16.578 32.042 18.9676 33.8759 20.6705L37 23.5714M43 11.5L42.7284 15.5744C42.5826 17.7617 41.5456 19.7933 39.8597 21.1945L37 23.5714" stroke="#B4E7EA" stroke-width="2"/>
<path d="M33.5 37L32.5 51.3M36 64L35.6359 61.6938C34.8863 56.9467 33.1872 52.3995 30.6401 48.3241V48.3241C29.8836 47.1138 28.9644 46.0131 27.9083 45.053L26.1867 43.4879C24.7428 42.1752 23.0566 41.157 21.2227 40.4901L19.7116 39.9406C18.905 39.6473 18.0774 39.4155 17.2358 39.2472V39.2472C14.7514 38.7503 12.2239 38.5 9.69019 38.5H9V42.9875C9 45.967 9.5837 48.9176 10.7181 51.6726V51.6726C11.8852 54.5068 13.7828 56.9809 16.2175 58.8428L16.329 58.928C19.4023 61.2782 22.9723 62.8945 26.7661 63.6532L27.772 63.8544C29.9121 64.2824 32.104 64.3896 34.2756 64.1724L36 64Z" stroke="#B4E7EA" stroke-width="2"/>
<path d="M40.5 37L41.5 51.3M38 64L38.3641 61.6938C39.1137 56.9467 40.8128 52.3995 43.3599 48.3241V48.3241C44.1164 47.1138 45.0356 46.0131 46.0917 45.053L47.8133 43.4879C49.2572 42.1752 50.9434 41.157 52.7773 40.4901L54.2884 39.9406C55.095 39.6473 55.9226 39.4155 56.7642 39.2472V39.2472C59.2486 38.7503 61.7761 38.5 64.3098 38.5H65V42.9875C65 45.967 64.4163 48.9176 63.2819 51.6726V51.6726C62.1148 54.5068 60.2172 56.9809 57.7825 58.8428L57.671 58.928C54.5977 61.2782 51.0277 62.8945 47.2339 63.6532L46.228 63.8544C44.0879 64.2824 41.896 64.3896 39.7244 64.1724L38 64Z" stroke="#B4E7EA" stroke-width="2"/>
</svg>
